<?xml version="1.0" encoding="UTF-8"?><svg id="Layer_2" xmlns="http://www.w3.org/2000/svg" xmlns:xlink="http://www.w3.org/1999/xlink" viewBox="0 0 141.73 141.73"><defs><style>.cls-1{clip-path:url(#clippath);}.cls-2{fill:none;stroke-width:0px;}.cls-3{isolation:isolate;}</style><clipPath id="clippath"><path class="cls-2" d="m71.05,33.66c12.15,0,13.59.05,18.39.26,4.44.2,6.85.94,8.45,1.57,2.12.83,3.64,1.81,5.23,3.4,1.59,1.59,2.58,3.11,3.4,5.23.62,1.6,1.36,4.01,1.57,8.45.22,4.8.26,6.24.26,18.39s-.05,13.59-.26,18.38c-.2,4.44-.94,6.85-1.57,8.45-.83,2.12-1.81,3.64-3.4,5.23-1.59,1.59-3.11,2.58-5.23,3.4-1.6.62-4.01,1.36-8.45,1.57-4.8.22-6.24.26-18.39.26s-13.59-.05-18.38-.26c-4.44-.2-6.85-.94-8.45-1.57-2.12-.83-3.64-1.81-5.23-3.4-1.59-1.59-2.58-3.11-3.4-5.23-.62-1.6-1.36-4.01-1.57-8.45-.22-4.8-.26-6.24-.26-18.38s.05-13.59.26-18.39c.2-4.44.94-6.85,1.57-8.45.83-2.12,1.81-3.64,3.4-5.23,1.59-1.59,3.11-2.58,5.23-3.4,1.6-.62,4.01-1.36,8.45-1.57,4.8-.22,6.24-.26,18.38-.26h0Zm0-8.2c-12.36,0-13.91.05-18.76.27-4.84.22-8.15.99-11.04,2.12-2.99,1.16-5.53,2.72-8.06,5.25-2.53,2.53-4.09,5.07-5.25,8.06-1.13,2.89-1.89,6.2-2.12,11.04-.22,4.85-.27,6.4-.27,18.76s.05,13.91.27,18.76c.22,4.84.99,8.15,2.12,11.04,1.16,2.99,2.72,5.53,5.25,8.06,2.53,2.53,5.07,4.08,8.06,5.25,2.89,1.13,6.2,1.89,11.04,2.12,4.85.22,6.4.27,18.76.27s13.91-.05,18.76-.27c4.84-.22,8.15-.99,11.04-2.12,2.99-1.16,5.53-2.72,8.06-5.25,2.53-2.53,4.08-5.07,5.25-8.06,1.13-2.89,1.89-6.2,2.12-11.04.22-4.85.27-6.4.27-18.76s-.05-13.91-.27-18.76c-.22-4.84-.99-8.15-2.12-11.04-1.16-2.99-2.72-5.53-5.25-8.06-2.53-2.53-5.07-4.08-8.06-5.25-2.89-1.13-6.2-1.89-11.04-2.12-4.85-.22-6.4-.27-18.76-.27Zm0,22.13c-12.9,0-23.36,10.46-23.36,23.36s10.46,23.36,23.36,23.36,23.36-10.46,23.36-23.36-10.46-23.36-23.36-23.36Zm0,38.53c-8.38,0-15.17-6.79-15.17-15.17s6.79-15.17,15.17-15.17,15.17,6.79,15.17,15.17-6.79,15.17-15.17,15.17Zm24.29-44.91c-3.02,0-5.46,2.44-5.46,5.46s2.44,5.46,5.46,5.46,5.46-2.44,5.46-5.46-2.44-5.46-5.46-5.46h0Z"/></clipPath></defs><g id="Layer_1-2"><g class="cls-1"><g id="Instagram_GLYPH_2500px.tif"><image id="Instagram_GLYPH_2500px" class="cls-3" width="2497" height="2497" transform="translate(-.04 -.13) scale(.06)" xlink:href="../../../../../../../var/folders/_p/m_4pcdjn3v7dvvsf35knh77r0000gn/T/TemporaryItems/NSIRD_Illustrator_fe0awQ/AI_27_8/Adobe/AISVG/9/アートボード 1/アートボード 11.png"/></g></g></g></svg>