<?xml version="1.0" encoding="utf-8"?>
<!-- Generator: Adobe Illustrator 27.8.1, SVG Export Plug-In . SVG Version: 6.00 Build 0)  -->
<svg version="1.1" id="Logo_00000158727625646119494500000015711314265259652764_"
	 xmlns="http://www.w3.org/2000/svg" xmlns:xlink="http://www.w3.org/1999/xlink" x="0px" y="0px" width="697.3px" height="697.3px"
	 viewBox="0 0 697.3 697.3" style="enable-background:new 0 0 697.3 697.3;" xml:space="preserve">
<style type="text/css">
	.st0{fill:#0866FF;}
	.st1{fill:#FFFFFF;}
</style>
<g id="Logo">
	<path id="Initiator" class="st0" d="M525.8,348.7c0-97.8-79.3-177.2-177.2-177.2s-177.2,79.3-177.2,177.2
		c0,83.1,57.2,152.8,134.4,171.9V402.8h-36.5v-54.1h36.5v-23.3c0-60.3,27.3-88.2,86.5-88.2c11.2,0,30.6,2.2,38.5,4.4v49.1
		c-4.2-0.4-11.4-0.7-20.5-0.7c-29,0-40.3,11-40.3,39.6v19.1H428l-9.9,54.1h-47.9v121.7C457.8,513.9,525.8,439.2,525.8,348.7z"/>
	<path id="F" class="st1" d="M418.1,402.8l9.9-54.1h-57.9v-19.1c0-28.6,11.2-39.6,40.3-39.6c9,0,16.3,0.2,20.5,0.7v-49.1
		c-7.9-2.2-27.3-4.4-38.5-4.4c-59.2,0-86.5,27.9-86.5,88.2v23.3h-36.5v54.1h36.5v117.8c13.7,3.4,28,5.2,42.8,5.2
		c7.3,0,14.4-0.4,21.5-1.3V402.8H418.1z"/>
</g>
</svg>
