<?xml version="1.0" encoding="utf-8"?>
<!-- Generator: Adobe Illustrator 27.8.1, SVG Export Plug-In . SVG Version: 6.00 Build 0)  -->
<svg version="1.1" id="LINE_LOGO_1_" xmlns="http://www.w3.org/2000/svg" xmlns:xlink="http://www.w3.org/1999/xlink" x="0px"
	 y="0px" width="640px" height="640px" viewBox="0 0 640 640" enable-background="new 0 0 640 640" xml:space="preserve">
<rect x="0" y="0" transform="matrix(-1.836970e-16 1 -1 -1.836970e-16 640.0002 1.546091e-04)" opacity="0.39" fill="none" width="640" height="640"/>
<g>
	<path fill="#06C755" d="M407.86,480H232.14C192.3,480,160,447.7,160,407.86V232.14c0-39.84,32.3-72.14,72.14-72.14h175.72
		c39.84,0,72.14,32.3,72.14,72.14v175.72C480,447.7,447.7,480,407.86,480z"/>
	<g>
		<g>
			<g>
				<path fill="#FFFFFF" d="M426.66,304.92c0-47.74-47.86-86.58-106.69-86.58c-58.82,0-106.69,38.84-106.69,86.58
					c0,42.8,37.96,78.64,89.23,85.42c3.47,0.75,8.2,2.29,9.4,5.26c1.08,2.7,0.7,6.92,0.35,9.65c0,0-1.25,7.53-1.52,9.13
					c-0.47,2.7-2.14,10.55,9.24,5.75c11.39-4.8,61.44-36.18,83.82-61.94h0C419.25,341.24,426.66,324.03,426.66,304.92z"/>
			</g>
			<g>
				<path fill="#06C755" d="M391.16,332.49h-29.93h-0.04c-1.13,0-2.04-0.91-2.04-2.04v-0.03v0v-46.48v0v-0.04
					c0-1.13,0.91-2.04,2.04-2.04h0.04h29.93c1.12,0,2.04,0.92,2.04,2.04v7.57c0,1.13-0.91,2.04-2.04,2.04h-20.37v7.86h20.37
					c1.12,0,2.04,0.92,2.04,2.04v7.57c0,1.13-0.91,2.04-2.04,2.04h-20.37v7.86h20.37c1.12,0,2.04,0.92,2.04,2.04v7.57
					C393.2,331.58,392.29,332.49,391.16,332.49z"/>
				<path fill="#06C755" d="M280.29,332.49c1.12,0,2.04-0.91,2.04-2.04v-7.57c0-1.12-0.92-2.04-2.04-2.04h-20.37v-36.96
					c0-1.12-0.92-2.04-2.04-2.04h-7.57c-1.13,0-2.04,0.91-2.04,2.04v46.53v0v0.03c0,1.13,0.91,2.04,2.04,2.04h0.04H280.29z"/>
				<path fill="#06C755" d="M298.33,281.85h-7.57c-1.12,0-2.04,0.91-2.04,2.04v46.56c0,1.12,0.91,2.04,2.04,2.04h7.57
					c1.13,0,2.04-0.91,2.04-2.04v-46.56C300.37,282.77,299.46,281.85,298.33,281.85z"/>
				<path fill="#06C755" d="M349.84,281.85h-7.57c-1.13,0-2.04,0.91-2.04,2.04v27.65l-21.3-28.77c-0.05-0.07-0.11-0.14-0.16-0.21
					c0,0-0.01-0.01-0.01-0.01c-0.04-0.04-0.08-0.09-0.12-0.13c-0.01-0.01-0.03-0.02-0.04-0.03c-0.04-0.03-0.07-0.06-0.11-0.09
					c-0.02-0.01-0.04-0.03-0.06-0.04c-0.03-0.03-0.07-0.05-0.11-0.07c-0.02-0.01-0.04-0.03-0.06-0.04
					c-0.04-0.02-0.07-0.04-0.11-0.06c-0.02-0.01-0.04-0.02-0.06-0.03c-0.04-0.02-0.08-0.04-0.12-0.05
					c-0.02-0.01-0.04-0.02-0.07-0.02c-0.04-0.01-0.08-0.03-0.12-0.04c-0.02-0.01-0.05-0.01-0.07-0.02
					c-0.04-0.01-0.08-0.02-0.12-0.03c-0.03-0.01-0.06-0.01-0.09-0.01c-0.04-0.01-0.07-0.01-0.11-0.01c-0.04,0-0.07,0-0.11-0.01
					c-0.02,0-0.05,0-0.07,0h-7.52c-1.12,0-2.04,0.91-2.04,2.04v46.56c0,1.12,0.91,2.04,2.04,2.04h7.57c1.13,0,2.04-0.91,2.04-2.04
					v-27.65l21.33,28.81c0.15,0.21,0.33,0.38,0.53,0.51c0.01,0.01,0.02,0.01,0.02,0.02c0.04,0.03,0.08,0.05,0.13,0.08
					c0.02,0.01,0.04,0.02,0.06,0.03c0.03,0.02,0.07,0.03,0.1,0.05c0.03,0.02,0.07,0.03,0.1,0.04c0.02,0.01,0.04,0.02,0.06,0.02
					c0.05,0.02,0.09,0.03,0.14,0.04c0.01,0,0.02,0.01,0.03,0.01c0.17,0.04,0.35,0.07,0.53,0.07h7.52c1.12,0,2.04-0.91,2.04-2.04
					v-46.56C351.88,282.77,350.97,281.85,349.84,281.85z"/>
			</g>
		</g>
	</g>
</g>
</svg>
